<?xml version="1.0" encoding="UTF-8" standalone="no"?>
<svg
   xmlns:dc="http://purl.org/dc/elements/1.1/"
   xmlns:cc="http://creativecommons.org/ns#"
   xmlns:rdf="http://www.w3.org/1999/02/22-rdf-syntax-ns#"
   xmlns:svg="http://www.w3.org/2000/svg"
   xmlns="http://www.w3.org/2000/svg"
   xmlns:xlink="http://www.w3.org/1999/xlink"
   xmlns:sodipodi="http://sodipodi.sourceforge.net/DTD/sodipodi-0.dtd"
   xmlns:inkscape="http://www.inkscape.org/namespaces/inkscape"
   width="297mm"
   height="210mm"
   viewBox="0 0 297 210"
   version="1.1"
   id="svg1161"
   inkscape:version="1.0.1 (3bc2e813f5, 2020-09-07)"
   sodipodi:docname="anim_base.svg">
  <defs
     id="defs1155">
    <linearGradient
       inkscape:collect="always"
       xlink:href="#b-2"
       id="linearGradient1143"
       gradientUnits="userSpaceOnUse"
       gradientTransform="matrix(2.2777997,0,0,2.2906359,1373.8107,-330.72702)"
       x1="451.99286"
       y1="213.01472"
       x2="483.48297"
       y2="245.14677" />
    <linearGradient
       inkscape:collect="always"
       id="b-2">
      <stop
         style="stop-color:#ff0000;stop-opacity:1;"
         offset="0"
         id="stop970" />
      <stop
         style="stop-color:#ff0000;stop-opacity:0;"
         offset="1"
         id="stop972" />
    </linearGradient>
  </defs>
  <sodipodi:namedview
     id="base"
     pagecolor="#ffffff"
     bordercolor="#666666"
     borderopacity="1.0"
     inkscape:pageopacity="0.0"
     inkscape:pageshadow="2"
     inkscape:zoom="0.7"
     inkscape:cx="364.17574"
     inkscape:cy="461.99443"
     inkscape:document-units="mm"
     inkscape:current-layer="layer1"
     inkscape:document-rotation="0"
     showgrid="false"
     showborder="false"
     inkscape:pagecheckerboard="true"
     inkscape:window-width="1540"
     inkscape:window-height="1009"
     inkscape:window-x="1066"
     inkscape:window-y="107"
     inkscape:window-maximized="0" />
  <metadata
     id="metadata1158">
    <rdf:RDF>
      <cc:Work
         rdf:about="">
        <dc:format>image/svg+xml</dc:format>
        <dc:type
           rdf:resource="http://purl.org/dc/dcmitype/StillImage" />
        <dc:title></dc:title>
      </cc:Work>
    </rdf:RDF>
  </metadata>
  <g
     inkscape:label="Calque 1"
     inkscape:groupmode="layer"
     id="layer1">
    <g
       id="g1141"
       transform="translate(-2332.3384,-69.503704)">
      <path
         style="fill:url(#linearGradient1143);fill-opacity:1;stroke:none;stroke-width:0.851603px;stroke-linecap:butt;stroke-linejoin:miter;stroke-opacity:1"
         d="m 2431.5981,85.360853 c -11.8052,18.934047 -28.2635,25.943907 -29.0977,26.938097 2.4714,-13.16671 5.0131,-20.436261 3.8016,-33.602935 -4.0278,18.626985 -11.6624,25.788535 -20.0098,37.356445 l -28.5987,20.53173 v 6.72963 c -11.0453,12.10792 -19.8481,13.69159 -29.3863,18.72595 1.7919,7.93406 8.5327,12.55029 15.1296,17.26299 -2.9945,-11.00886 -1.2535,-17.25564 14.8386,-9.07038 10.0543,-36.90274 45.1064,1.36757 9.0195,2.34073 -0.706,7.6503 -4.2512,9.59033 -9.8924,7.31486 3.9582,5.05834 6.5814,10.82747 19.4939,11.11852 -2.2889,-15.77408 18.8448,-20.75226 42.4793,-24.57781 l -9.0196,-13.45931 c 70.2739,-9.60077 -8.7867,123.84151 -76.749,48.56541 62.8955,146.23537 233.0779,-55.21166 85.3322,-89.82104 7.9142,-12.84831 9.1285,-11.85132 12.6588,-26.352887 z"
         id="path1137"
         sodipodi:nodetypes="ccccccccccccccccc"
         inkscape:export-xdpi="70.9459"
         inkscape:export-ydpi="70.9459" />
      <path
         style="fill:#ffffff;stroke:none;stroke-width:0.879222px;stroke-linecap:butt;stroke-linejoin:miter;stroke-opacity:1"
         d="m 2366.5733,137.54189 c 2.1403,2.15239 3.6165,3.74817 3.9855,4.11927 1.0139,-3.47272 4.5722,-6.21436 7.528,-9.12912 -4.1168,1.33583 -8.039,2.23135 -11.5135,5.00985 z"
         id="path1139"
         sodipodi:nodetypes="cccc"
         inkscape:export-xdpi="70.9459"
         inkscape:export-ydpi="70.9459" />
    </g>
  </g>
</svg>
